<?xml version="1.0" standalone="no"?><!DOCTYPE svg PUBLIC "-//W3C//DTD SVG 1.1//EN" "http://www.w3.org/Graphics/SVG/1.1/DTD/svg11.dtd"><svg version="1.1" id="Layer_1" xmlns:xlink="http://www.w3.org/1999/xlink" x="0px" y="0px" viewBox="47.6 310.9 500 220" enable-background="new 47.6 310.9 500 220" xml:space="preserve" xmlns="http://www.w3.org/2000/svg" style="cursor:pointer;font-weight:bold;height:34.6719px;text-align:center;width:78.8125px;perspective-origin:39.4062px 17.3281px;transform-origin:39.4062px 17.3281px;">
                            <g style="cursor:pointer;font-weight:bold;height:auto;overflow-x:visible;overflow-y:visible;text-align:center;width:auto;perspective-origin:0px 0px;transform-origin:0px 0px;fill:rgb(106, 119, 138);">
                                <path d="M258.3,343.6H277v41.2h-25.2l7.8-40.8L258.3,343.6L258.3,343.6z M295.4,343.6h39.4c18.3,1.8,33,8.7,47.2,19.7&#10;c-1.4,0.5-2.7,1.4-4.1,2.3v0.5c-3.7,3.7-5.5,13.3-5.5,18.8h-76.9V343.6L295.4,343.6z" style="cursor:pointer;font-weight:bold;height:auto;overflow-x:visible;overflow-y:visible;text-align:center;width:auto;perspective-origin:0px 0px;transform-origin:0px 0px;fill:rgb(106, 119, 138);d:path('M 258.3 343.6 H 277 v 41.2 h -25.2 l 7.8 -40.8 L 258.3 343.6 L 258.3 343.6 Z M 295.4 343.6 h 39.4 c 18.3 1.8 33 8.7 47.2 19.7 c -1.4 0.5 -2.7 1.4 -4.1 2.3 v 0.5 c -3.7 3.7 -5.5 13.3 -5.5 18.8 h -76.9 V 343.6 L 295.4 343.6 Z');"/>
                                <path d="M107.6,476.4c-20.6,0-46.2-7.8-47.6-8.2l-2.7-1.4v-39.8l2.3-1.4c1.8-1.8,6.9-7.3,6.9-11v-7.8c0.5-5.5,0.5-11.9,0.9-17.4&#10;c0-3.7,6-11,11.9-13.3l1.8-0.5h146.5l7.3-38.9c1.4-6.9,6.9-11.4,14.2-11.4h86.5c27.5,2.3,43.5,15.6,61.4,29.8&#10;c8.2,6.4,16.5,15.1,26.1,21.1c4.1,0.5,10.5,0.5,17.9,0.9c43.5,1.8,83.3,4.6,87.5,24.3l4.1,34.8c2.7,1.8,6.4,5.5,6.4,10.5v15.1&#10;c0,4.1-0.5,6.4-4.1,9.2c-6.9,4.1-14.7,6-30.7,6h-6.4v-9.2h6.9c13.7,0,20.1-0.9,25.2-4.1c0,0,0,0.5,0-1.4V447c0-1.4-2.3-2.7-3.2-3.2&#10;l-2.7-0.9l-4.6-39.4c-3.2-13.3-54-15.1-78.3-16c-8.2-0.5-15.1-0.5-19.7-0.9l-1.8-0.5c-10.5-6.4-19.7-16-27.9-22.9&#10;c-16.9-13.7-31.6-25.6-55.4-27.5h-87.5c-2.3,0-4.1,0.9-4.6,3.2l-8.7,47.2H81.5c-2.7,1.4-5,4.1-5.5,5c0,4.6-0.5,11.4-0.5,16.9v7.3&#10;c0,6.9-6.4,13.3-9.2,16v28.4c7.3,2.7,26.6,8.7,41.7,8.2h8.7v9.2h-8.2C108.1,476.4,108.1,476.4,107.6,476.4L107.6,476.4z&#10;M423.6,476.4H185.5v-9.2h238.1V476.4L423.6,476.4z" style="cursor:pointer;font-weight:bold;height:auto;overflow-x:visible;overflow-y:visible;text-align:center;width:auto;perspective-origin:0px 0px;transform-origin:0px 0px;fill:rgb(106, 119, 138);d:path('M 107.6 476.4 c -20.6 0 -46.2 -7.8 -47.6 -8.2 l -2.7 -1.4 v -39.8 l 2.3 -1.4 c 1.8 -1.8 6.9 -7.3 6.9 -11 v -7.8 c 0.5 -5.5 0.5 -11.9 0.9 -17.4 c 0 -3.7 6 -11 11.9 -13.3 l 1.8 -0.5 h 146.5 l 7.3 -38.9 c 1.4 -6.9 6.9 -11.4 14.2 -11.4 h 86.5 c 27.5 2.3 43.5 15.6 61.4 29.8 c 8.2 6.4 16.5 15.1 26.1 21.1 c 4.1 0.5 10.5 0.5 17.9 0.9 c 43.5 1.8 83.3 4.6 87.5 24.3 l 4.1 34.8 c 2.7 1.8 6.4 5.5 6.4 10.5 v 15.1 c 0 4.1 -0.5 6.4 -4.1 9.2 c -6.9 4.1 -14.7 6 -30.7 6 h -6.4 v -9.2 h 6.9 c 13.7 0 20.1 -0.9 25.2 -4.1 c 0 0 0 0.5 0 -1.4 V 447 c 0 -1.4 -2.3 -2.7 -3.2 -3.2 l -2.7 -0.9 l -4.6 -39.4 c -3.2 -13.3 -54 -15.1 -78.3 -16 c -8.2 -0.5 -15.1 -0.5 -19.7 -0.9 l -1.8 -0.5 c -10.5 -6.4 -19.7 -16 -27.9 -22.9 c -16.9 -13.7 -31.6 -25.6 -55.4 -27.5 h -87.5 c -2.3 0 -4.1 0.9 -4.6 3.2 l -8.7 47.2 H 81.5 c -2.7 1.4 -5 4.1 -5.5 5 c 0 4.6 -0.5 11.4 -0.5 16.9 v 7.3 c 0 6.9 -6.4 13.3 -9.2 16 v 28.4 c 7.3 2.7 26.6 8.7 41.7 8.2 h 8.7 v 9.2 h -8.2 C 108.1 476.4 108.1 476.4 107.6 476.4 L 107.6 476.4 Z M 423.6 476.4 H 185.5 v -9.2 h 238.1 V 476.4 L 423.6 476.4 Z');"/>
                                <polygon points="529.3,444.3 523.4,407.7 515.1,407.7 515.1,444.3 &#9;" style="cursor:pointer;font-weight:bold;height:auto;overflow-x:visible;overflow-y:visible;text-align:center;width:auto;perspective-origin:0px 0px;transform-origin:0px 0px;fill:rgb(106, 119, 138);"/>
                                <polygon points="327.4,398.5 304.5,398.5 304.5,393.9 327.4,393.9 &#9;" style="cursor:pointer;font-weight:bold;height:auto;overflow-x:visible;overflow-y:visible;text-align:center;width:auto;perspective-origin:0px 0px;transform-origin:0px 0px;fill:rgb(106, 119, 138);"/>
                                <path d="M70.5,412.2h5c9.6,0,22.4-5.5,22.9-14.2v-8.7H72.3C72.3,397.6,71,406.3,70.5,412.2L70.5,412.2z" style="cursor:pointer;font-weight:bold;height:auto;overflow-x:visible;overflow-y:visible;text-align:center;width:auto;perspective-origin:0px 0px;transform-origin:0px 0px;fill:rgb(106, 119, 138);d:path('M 70.5 412.2 h 5 c 9.6 0 22.4 -5.5 22.9 -14.2 v -8.7 H 72.3 C 72.3 397.6 71 406.3 70.5 412.2 L 70.5 412.2 Z');"/>
                                <path d="M381,368.7L381,368.7c-2.7,2.7-4.1,12.4-4.1,16c0,1.4,0.5,2.3,1.4,3.2c0.9,0.9,1.8,1.4,3.2,1.4H392c11.4,0-1.8-20.1-6-21.5&#10;C384.2,366.9,382.4,367.4,381,368.7L381,368.7z" style="cursor:pointer;font-weight:bold;height:auto;overflow-x:visible;overflow-y:visible;text-align:center;width:auto;perspective-origin:0px 0px;transform-origin:0px 0px;fill:rgb(106, 119, 138);d:path('M 381 368.7 L 381 368.7 c -2.7 2.7 -4.1 12.4 -4.1 16 c 0 1.4 0.5 2.3 1.4 3.2 c 0.9 0.9 1.8 1.4 3.2 1.4 H 392 c 11.4 0 -1.8 -20.1 -6 -21.5 C 384.2 366.9 382.4 367.4 381 368.7 L 381 368.7 Z');"/>
                                <polygon points="222.1,443.4 222.1,453.5 394.3,453.5 &#9;" style="cursor:pointer;font-weight:bold;height:auto;overflow-x:visible;overflow-y:visible;text-align:center;width:auto;perspective-origin:0px 0px;transform-origin:0px 0px;fill:rgb(106, 119, 138);"/>
                                <path d="M405.2,471.8h-4.6v-12.4c0-33.4,25.6-60.4,59.1-60.4s60,27,60,60.4v12.4h-4.6v-13.3c0-29.8-25.6-53.1-55.4-53.1&#10;c-29.8,0-54.5,24.3-54.5,54V471.8L405.2,471.8z" style="cursor:pointer;font-weight:bold;height:auto;overflow-x:visible;overflow-y:visible;text-align:center;width:auto;perspective-origin:0px 0px;transform-origin:0px 0px;fill:rgb(106, 119, 138);d:path('M 405.2 471.8 h -4.6 v -12.4 c 0 -33.4 25.6 -60.4 59.1 -60.4 s 60 27 60 60.4 v 12.4 h -4.6 v -13.3 c 0 -29.8 -25.6 -53.1 -55.4 -53.1 c -29.8 0 -54.5 24.3 -54.5 54 V 471.8 L 405.2 471.8 Z');"/>
                                <path d="M460.7,457.1c-6,0-10.5,4.6-10.5,10.5s4.6,10.5,10.5,10.5c6,0,10.5-4.6,10.5-10.5S466.6,457.1,460.7,457.1L460.7,457.1z" style="cursor:pointer;font-weight:bold;height:auto;overflow-x:visible;overflow-y:visible;text-align:center;width:auto;perspective-origin:0px 0px;transform-origin:0px 0px;fill:rgb(106, 119, 138);d:path('M 460.7 457.1 c -6 0 -10.5 4.6 -10.5 10.5 s 4.6 10.5 10.5 10.5 c 6 0 10.5 -4.6 10.5 -10.5 S 466.6 457.1 460.7 457.1 L 460.7 457.1 Z');"/>
                                <path d="M210.2,471.8h-6.4v-12.4c0-29.8-23.8-54-53.6-54s-51.7,24.3-51.7,54v12.4h-9.2V459c0-33.4,27-60,60.4-60&#10;s62.7,25.6,62.7,59.1L210.2,471.8L210.2,471.8z" style="cursor:pointer;font-weight:bold;height:auto;overflow-x:visible;overflow-y:visible;text-align:center;width:auto;perspective-origin:0px 0px;transform-origin:0px 0px;fill:rgb(106, 119, 138);d:path('M 210.2 471.8 h -6.4 v -12.4 c 0 -29.8 -23.8 -54 -53.6 -54 s -51.7 24.3 -51.7 54 v 12.4 h -9.2 V 459 c 0 -33.4 27 -60 60.4 -60 s 62.7 25.6 62.7 59.1 L 210.2 471.8 L 210.2 471.8 Z');"/>
                                <path d="M460.7,413.2L460.7,413.2c12.8,0,24.3,5,32.5,13.7h-0.9c8.2,8.2,13.7,19.7,13.7,32.5v14.2v3.2h-4.6H500&#10;c-2.3,7.8-6.9,15.1-12.8,20.1c-6.9,6-16,11.4-26.1,11.4s-19.2-3.7-26.1-9.6V497c-6-5-10.5-12.4-12.8-20.1h-2.3h-5v-4.6v-12.4&#10;c0-12.8,5-24.3,13.7-32.5h0.5C436.8,418.2,448.3,413.2,460.7,413.2L460.7,413.2L460.7,413.2z M460.7,440.6c-14.7,0-27,11.9-27,27&#10;c0,14.7,11.9,27,27,27c14.7,0,27-11.9,27-27C487.7,452.5,475.8,440.6,460.7,440.6L460.7,440.6L460.7,440.6z M152,440.6&#10;c-14.7,0-27,11.9-27,27c0,14.7,11.9,27,27,27c14.7,0,27-11.9,27-27C179,452.5,166.7,440.6,152,440.6L152,440.6L152,440.6z&#10;M152,413.2L152,413.2c12.8,0,24.3,5,32.5,13.7h0.9c8.2,8.2,13.7,19.7,13.7,32.5v14.2v3.2h-4.6h-3.7c-2.3,7.8-6.9,15.1-12.8,20.1&#10;c-6.9,6-16,11.4-26.1,11.4c-10.1,0-19.2-5.5-26.1-11.4c-6-5-10.5-12.4-12.8-20.1h-2.3h-3.2v-4.6v-12.4c0-12.8,5-24.3,13.7-32.5&#10;C129.6,418.2,139.2,413.2,152,413.2L152,413.2z" style="cursor:pointer;font-weight:bold;height:auto;overflow-x:visible;overflow-y:visible;text-align:center;width:auto;perspective-origin:0px 0px;transform-origin:0px 0px;fill:rgb(106, 119, 138);d:path('M 460.7 413.2 L 460.7 413.2 c 12.8 0 24.3 5 32.5 13.7 h -0.9 c 8.2 8.2 13.7 19.7 13.7 32.5 v 14.2 v 3.2 h -4.6 H 500 c -2.3 7.8 -6.9 15.1 -12.8 20.1 c -6.9 6 -16 11.4 -26.1 11.4 s -19.2 -3.7 -26.1 -9.6 V 497 c -6 -5 -10.5 -12.4 -12.8 -20.1 h -2.3 h -5 v -4.6 v -12.4 c 0 -12.8 5 -24.3 13.7 -32.5 h 0.5 C 436.8 418.2 448.3 413.2 460.7 413.2 L 460.7 413.2 L 460.7 413.2 Z M 460.7 440.6 c -14.7 0 -27 11.9 -27 27 c 0 14.7 11.9 27 27 27 c 14.7 0 27 -11.9 27 -27 C 487.7 452.5 475.8 440.6 460.7 440.6 L 460.7 440.6 L 460.7 440.6 Z M 152 440.6 c -14.7 0 -27 11.9 -27 27 c 0 14.7 11.9 27 27 27 c 14.7 0 27 -11.9 27 -27 C 179 452.5 166.7 440.6 152 440.6 L 152 440.6 L 152 440.6 Z M 152 413.2 L 152 413.2 c 12.8 0 24.3 5 32.5 13.7 h 0.9 c 8.2 8.2 13.7 19.7 13.7 32.5 v 14.2 v 3.2 h -4.6 h -3.7 c -2.3 7.8 -6.9 15.1 -12.8 20.1 c -6.9 6 -16 11.4 -26.1 11.4 c -10.1 0 -19.2 -5.5 -26.1 -11.4 c -6 -5 -10.5 -12.4 -12.8 -20.1 h -2.3 h -3.2 v -4.6 v -12.4 c 0 -12.8 5 -24.3 13.7 -32.5 C 129.6 418.2 139.2 413.2 152 413.2 L 152 413.2 Z');"/>
                                <path d="M152,457.1c-6,0-10.5,4.6-10.5,10.5s4.6,10.5,10.5,10.5c6,0,10.5-4.6,10.5-10.5S158,457.1,152,457.1L152,457.1z" style="cursor:pointer;font-weight:bold;height:auto;overflow-x:visible;overflow-y:visible;text-align:center;width:auto;perspective-origin:0px 0px;transform-origin:0px 0px;fill:rgb(106, 119, 138);d:path('M 152 457.1 c -6 0 -10.5 4.6 -10.5 10.5 s 4.6 10.5 10.5 10.5 c 6 0 10.5 -4.6 10.5 -10.5 S 158 457.1 152 457.1 L 152 457.1 Z');"/>
                            </g>
                        </svg>