<?xml version="1.0" standalone="no"?><!DOCTYPE svg PUBLIC "-//W3C//DTD SVG 1.1//EN" "http://www.w3.org/Graphics/SVG/1.1/DTD/svg11.dtd"><svg version="1.1" id="Layer_6" xmlns:xlink="http://www.w3.org/1999/xlink" x="0px" y="0px" viewBox="47.6 310.9 500 220" enable-background="new 47.6 310.9 500 220" xml:space="preserve" xmlns="http://www.w3.org/2000/svg" style="cursor:pointer;font-weight:bold;height:34.6719px;text-align:center;width:78.8125px;perspective-origin:39.4062px 17.3281px;transform-origin:39.4062px 17.3281px;">
                            <g style="cursor:pointer;font-weight:bold;height:auto;overflow-x:visible;overflow-y:visible;text-align:center;width:auto;perspective-origin:0px 0px;transform-origin:0px 0px;fill:rgb(106, 119, 138);">
                                <path d="M367.7,491.9h-142v-9.2h142V491.9L367.7,491.9z M408.9,490.1v-9.2c8.2,0,14.2-0.9,18.3-1.4V448c-2.7-11-39.8-27.5-54-27.5&#10;l-0.9-1.4h-1.4h-5c-27.9-16.9-49.9-29.3-82-32.1h-25.6c-19.7,0-35.7,1.4-48.1,4.6l1.8,0.5l-4.1,2.7c-13.3,8.2-36.2,28.8-34.3,39.8&#10;c0,6.9-4.6,11.9-7.3,14.2v22.9c1.4,2.3,5.5,7.8,14.7,9.2l-2.3,9.2c-16-2.7-21.1-14.7-21.1-15.1l-0.5-1.8v-29.3l2.3-1.4&#10;c1.8-0.9,4.1-4.6,4.1-7.3c-2.3-16.5,22.4-37.1,35.7-46.2l-3.7-5.5l6,0.9c14.2-4.6,33-6.9,56.8-6.9h26.1&#10;c34.8,3.2,58.6,17.9,86.5,34.8l2.7-1.4c16.5,0.9,58.2,18.3,62.3,36.2l2.7,40.3h-6.4C425.9,488.7,420.4,489.6,408.9,490.1&#10;L408.9,490.1z" style="cursor:pointer;font-weight:bold;height:auto;overflow-x:visible;overflow-y:visible;text-align:center;width:auto;perspective-origin:0px 0px;transform-origin:0px 0px;fill:rgb(106, 119, 138);d:path('M 367.7 491.9 h -142 v -9.2 h 142 V 491.9 L 367.7 491.9 Z M 408.9 490.1 v -9.2 c 8.2 0 14.2 -0.9 18.3 -1.4 V 448 c -2.7 -11 -39.8 -27.5 -54 -27.5 l -0.9 -1.4 h -1.4 h -5 c -27.9 -16.9 -49.9 -29.3 -82 -32.1 h -25.6 c -19.7 0 -35.7 1.4 -48.1 4.6 l 1.8 0.5 l -4.1 2.7 c -13.3 8.2 -36.2 28.8 -34.3 39.8 c 0 6.9 -4.6 11.9 -7.3 14.2 v 22.9 c 1.4 2.3 5.5 7.8 14.7 9.2 l -2.3 9.2 c -16 -2.7 -21.1 -14.7 -21.1 -15.1 l -0.5 -1.8 v -29.3 l 2.3 -1.4 c 1.8 -0.9 4.1 -4.6 4.1 -7.3 c -2.3 -16.5 22.4 -37.1 35.7 -46.2 l -3.7 -5.5 l 6 0.9 c 14.2 -4.6 33 -6.9 56.8 -6.9 h 26.1 c 34.8 3.2 58.6 17.9 86.5 34.8 l 2.7 -1.4 c 16.5 0.9 58.2 18.3 62.3 36.2 l 2.7 40.3 h -6.4 C 425.9 488.7 420.4 489.6 408.9 490.1 L 408.9 490.1 Z');"/>
                                <path d="M202.4,442.9L202.4,442.9c9.2,0,17.9,3.7,24.3,10.1h-1.4c6,6,10.1,14.7,10.1,24.3v8.7v6.4h-4.6H229c-1.4,3.2-3.7,6.4-6,8.7&#10;v-1.4l0,0c-5,5-12.4,8.7-20.6,8.7c-7.8,0-15.1-3.2-20.6-8.7l0,0l0,0c-2.7-2.7-5-6.4-6.4-10.1c-1.4-0.5-5-0.9-6-1.4l-2.7-1.4v-3.2&#10;v-6.4c0-9.2,3.7-17.9,10.1-24.3h2.3C184.5,447,192.8,442.9,202.4,442.9L202.4,442.9L202.4,442.9z M388.3,459&#10;c-11,0-19.7,8.7-19.7,19.7c0,11,8.7,19.7,19.7,19.7c11,0,19.7-8.7,19.7-19.7C408,468.1,399.3,459,388.3,459L388.3,459L388.3,459z&#10;M202.4,459c-11,0-19.7,8.7-19.7,19.7c0,11,8.7,19.7,19.7,19.7s19.7-8.7,19.7-19.7C222.1,468.1,213.4,459,202.4,459L202.4,459&#10;L202.4,459z M388.3,442.9L388.3,442.9c9.2,0,17.9,3.7,24.3,10.1l0,0c6,6,10.1,14.7,10.1,24.3v8.2v6.4h-4.6c-0.9,0-1.8,0-3.2,0&#10;c-1.4,3.2-3.7,4.6-6,7.3l0,0l0,0c-5,5-12.4,8.7-20.6,8.7c-7.8,0-15.1-3.2-20.6-8.7l0,0v1.4c-2.7-2.7-4.6-5.5-6-8.7H359h-5v-4.6&#10;v-10.1c0-9.2,3.7-17.9,10.1-24.3h0.5C370.4,447,378.7,442.9,388.3,442.9L388.3,442.9z" style="cursor:pointer;font-weight:bold;height:auto;overflow-x:visible;overflow-y:visible;text-align:center;width:auto;perspective-origin:0px 0px;transform-origin:0px 0px;fill:rgb(106, 119, 138);d:path('M 202.4 442.9 L 202.4 442.9 c 9.2 0 17.9 3.7 24.3 10.1 h -1.4 c 6 6 10.1 14.7 10.1 24.3 v 8.7 v 6.4 h -4.6 H 229 c -1.4 3.2 -3.7 6.4 -6 8.7 v -1.4 l 0 0 c -5 5 -12.4 8.7 -20.6 8.7 c -7.8 0 -15.1 -3.2 -20.6 -8.7 l 0 0 l 0 0 c -2.7 -2.7 -5 -6.4 -6.4 -10.1 c -1.4 -0.5 -5 -0.9 -6 -1.4 l -2.7 -1.4 v -3.2 v -6.4 c 0 -9.2 3.7 -17.9 10.1 -24.3 h 2.3 C 184.5 447 192.8 442.9 202.4 442.9 L 202.4 442.9 L 202.4 442.9 Z M 388.3 459 c -11 0 -19.7 8.7 -19.7 19.7 c 0 11 8.7 19.7 19.7 19.7 c 11 0 19.7 -8.7 19.7 -19.7 C 408 468.1 399.3 459 388.3 459 L 388.3 459 L 388.3 459 Z M 202.4 459 c -11 0 -19.7 8.7 -19.7 19.7 c 0 11 8.7 19.7 19.7 19.7 s 19.7 -8.7 19.7 -19.7 C 222.1 468.1 213.4 459 202.4 459 L 202.4 459 L 202.4 459 Z M 388.3 442.9 L 388.3 442.9 c 9.2 0 17.9 3.7 24.3 10.1 l 0 0 c 6 6 10.1 14.7 10.1 24.3 v 8.2 v 6.4 h -4.6 c -0.9 0 -1.8 0 -3.2 0 c -1.4 3.2 -3.7 4.6 -6 7.3 l 0 0 l 0 0 c -5 5 -12.4 8.7 -20.6 8.7 c -7.8 0 -15.1 -3.2 -20.6 -8.7 l 0 0 v 1.4 c -2.7 -2.7 -4.6 -5.5 -6 -8.7 H 359 h -5 v -4.6 v -10.1 c 0 -9.2 3.7 -17.9 10.1 -24.3 h 0.5 C 370.4 447 378.7 442.9 388.3 442.9 L 388.3 442.9 Z');"/>
                                <path d="M205.1,393.9c-9.2,5-23.4,12.8-30.2,20.1h16l21.5-22.9L205.1,393.9L205.1,393.9z" style="cursor:pointer;font-weight:bold;height:auto;overflow-x:visible;overflow-y:visible;text-align:center;width:auto;perspective-origin:0px 0px;transform-origin:0px 0px;fill:rgb(106, 119, 138);d:path('M 205.1 393.9 c -9.2 5 -23.4 12.8 -30.2 20.1 h 16 l 21.5 -22.9 L 205.1 393.9 L 205.1 393.9 Z');"/>
                                <path d="M212,416.4c14.7-16.5,24.7-25.2,37.1-25.2h34.8c20.6,1.8,37.5,8.7,54.5,17.9c-0.5,0-0.5-0.5-0.9,0l0,0&#10;c-3.2,3.2-5,6.9-5,11.4c0,0.9,0,1.4,0,2.3L212,416.4L212,416.4z" style="cursor:pointer;font-weight:bold;height:auto;overflow-x:visible;overflow-y:visible;text-align:center;width:auto;perspective-origin:0px 0px;transform-origin:0px 0px;fill:rgb(106, 119, 138);d:path('M 212 416.4 c 14.7 -16.5 24.7 -25.2 37.1 -25.2 h 34.8 c 20.6 1.8 37.5 8.7 54.5 17.9 c -0.5 0 -0.5 -0.5 -0.9 0 l 0 0 c -3.2 3.2 -5 6.9 -5 11.4 c 0 0.9 0 1.4 0 2.3 L 212 416.4 L 212 416.4 Z');"/>
                                <path d="M166.2,425.5v0.9v11h13.3c0,0,8.2-9.6,7.8-15.1C186.8,421.9,177.7,422.3,166.2,425.5L166.2,425.5z" style="cursor:pointer;font-weight:bold;height:auto;overflow-x:visible;overflow-y:visible;text-align:center;width:auto;perspective-origin:0px 0px;transform-origin:0px 0px;fill:rgb(106, 119, 138);d:path('M 166.2 425.5 v 0.9 v 11 h 13.3 c 0 0 8.2 -9.6 7.8 -15.1 C 186.8 421.9 177.7 422.3 166.2 425.5 L 166.2 425.5 Z');"/>
                                <path d="M202.4,471.8c-4.1,0-7.3,3.2-7.3,7.3c0,4.1,3.2,7.3,7.3,7.3c4.1,0,7.3-3.2,7.3-7.3C209.3,475,206.1,471.8,202.4,471.8&#10;L202.4,471.8z" style="cursor:pointer;font-weight:bold;height:auto;overflow-x:visible;overflow-y:visible;text-align:center;width:auto;perspective-origin:0px 0px;transform-origin:0px 0px;fill:rgb(106, 119, 138);d:path('M 202.4 471.8 c -4.1 0 -7.3 3.2 -7.3 7.3 c 0 4.1 3.2 7.3 7.3 7.3 c 4.1 0 7.3 -3.2 7.3 -7.3 C 209.3 475 206.1 471.8 202.4 471.8 L 202.4 471.8 Z');"/>
                                <path d="M388.3,471.8c-4.1,0-7.3,3.2-7.3,7.3c0,4.1,3.2,7.3,7.3,7.3c4.1,0,7.3-3.2,7.3-7.3C395.6,475,392.4,471.8,388.3,471.8&#10;L388.3,471.8z" style="cursor:pointer;font-weight:bold;height:auto;overflow-x:visible;overflow-y:visible;text-align:center;width:auto;perspective-origin:0px 0px;transform-origin:0px 0px;fill:rgb(106, 119, 138);d:path('M 388.3 471.8 c -4.1 0 -7.3 3.2 -7.3 7.3 c 0 4.1 3.2 7.3 7.3 7.3 c 4.1 0 7.3 -3.2 7.3 -7.3 C 395.6 475 392.4 471.8 388.3 471.8 L 388.3 471.8 Z');"/>
                                <polygon points="285.3,432.4 271.5,432.4 271.5,427.8 285.3,427.8 &#9;" style="cursor:pointer;font-weight:bold;height:auto;overflow-x:visible;overflow-y:visible;text-align:center;width:auto;perspective-origin:0px 0px;transform-origin:0px 0px;fill:rgb(106, 119, 138);"/>
                                <path d="M339.8,411.3L339.8,411.3c-2.7,2.7-4.1,6-4.1,9.6c0,1.4,0.5,4.6,1.4,5.5c0.9,0.9,1.8,1.4,3.2,1.4h10.5&#10;c1.8,0,3.2-0.9,4.1-2.3c0.9-1.4,0.9-5.5,0-6.9c-1.8-3.2-5-6.4-10.1-8.2C343,409.5,341.1,410,339.8,411.3L339.8,411.3z" style="cursor:pointer;font-weight:bold;height:auto;overflow-x:visible;overflow-y:visible;text-align:center;width:auto;perspective-origin:0px 0px;transform-origin:0px 0px;fill:rgb(106, 119, 138);d:path('M 339.8 411.3 L 339.8 411.3 c -2.7 2.7 -4.1 6 -4.1 9.6 c 0 1.4 0.5 4.6 1.4 5.5 c 0.9 0.9 1.8 1.4 3.2 1.4 h 10.5 c 1.8 0 3.2 -0.9 4.1 -2.3 c 0.9 -1.4 0.9 -5.5 0 -6.9 c -1.8 -3.2 -5 -6.4 -10.1 -8.2 C 343 409.5 341.1 410 339.8 411.3 L 339.8 411.3 Z');"/>
                                <path d="M348.5,430.6c-0.9,0-1.8-0.5-2.7-1.4l-6-8.2c-0.9-1.4-0.9-3.2,0.9-4.6c1.4-0.9,3.2-0.9,4.6,0.9l6,8.2&#10;c0.9,1.4,0.9,3.2-0.9,4.6C349.8,430.1,348.9,430.6,348.5,430.6L348.5,430.6z" style="cursor:pointer;font-weight:bold;height:auto;overflow-x:visible;overflow-y:visible;text-align:center;width:auto;perspective-origin:0px 0px;transform-origin:0px 0px;fill:rgb(106, 119, 138);d:path('M 348.5 430.6 c -0.9 0 -1.8 -0.5 -2.7 -1.4 l -6 -8.2 c -0.9 -1.4 -0.9 -3.2 0.9 -4.6 c 1.4 -0.9 3.2 -0.9 4.6 0.9 l 6 8.2 c 0.9 1.4 0.9 3.2 -0.9 4.6 C 349.8 430.1 348.9 430.6 348.5 430.6 L 348.5 430.6 Z');"/>
                                <polygon points="225.7,427.8 212,427.8 212,423.2 225.7,423.2 &#9;" style="cursor:pointer;font-weight:bold;height:auto;overflow-x:visible;overflow-y:visible;text-align:center;width:auto;perspective-origin:0px 0px;transform-origin:0px 0px;fill:rgb(106, 119, 138);"/>
                                <path d="M397,423.2c11.9,21.1,16,26.6,31.6,26.6v0.5l0,0l0,0l0,0l0,0h0.5h1.8v-2.7c-1.8-8.7-16-17.9-30.7-24.3H397L397,423.2z" style="cursor:pointer;font-weight:bold;height:auto;overflow-x:visible;overflow-y:visible;text-align:center;width:auto;perspective-origin:0px 0px;transform-origin:0px 0px;fill:rgb(106, 119, 138);d:path('M 397 423.2 c 11.9 21.1 16 26.6 31.6 26.6 v 0.5 l 0 0 l 0 0 l 0 0 l 0 0 h 0.5 h 1.8 v -2.7 c -1.8 -8.7 -16 -17.9 -30.7 -24.3 H 397 L 397 423.2 Z');"/>
                            </g>
                        </svg>