<?xml version="1.0" standalone="no"?><!DOCTYPE svg PUBLIC "-//W3C//DTD SVG 1.1//EN" "http://www.w3.org/Graphics/SVG/1.1/DTD/svg11.dtd"><svg version="1.1" id="Layer_5" xmlns:xlink="http://www.w3.org/1999/xlink" x="0px" y="0px" viewBox="47.6 310.9 500 220" enable-background="new 47.6 310.9 500 220" xml:space="preserve" xmlns="http://www.w3.org/2000/svg" style="cursor:pointer;font-weight:bold;height:34.6719px;text-align:center;width:78.8125px;perspective-origin:39.4062px 17.3281px;transform-origin:39.4062px 17.3281px;">
                            <g style="background-color:rgb(84, 182, 182);cursor:pointer;font-weight:bold;height:auto;overflow-x:visible;overflow-y:visible;text-align:center;width:auto;perspective-origin:0px 0px;transform-origin:0px 0px;fill:rgb(84, 182, 182);">
                                <path d="M207.9,399.4c-9.2,0-34.8-2.3-48.1-9.6c20.6-11,57.2-23.8,76-23.8c16.5,0,36.6,0,52.7,0c25.2,0,46.2,9.2,66.9,20.6&#10;c-3.2,3.2-5,6.4-5.5,11.4c0,0.5,0,0.9,0,1.4H207.9L207.9,399.4z" style="cursor:pointer;font-weight:bold;height:auto;overflow-x:visible;overflow-y:visible;text-align:center;width:auto;perspective-origin:0px 0px;transform-origin:0px 0px;fill:rgb(84, 182, 182);d:path('M 207.9 399.4 c -9.2 0 -34.8 -2.3 -48.1 -9.6 c 20.6 -11 57.2 -23.8 76 -23.8 c 16.5 0 36.6 0 52.7 0 c 25.2 0 46.2 9.2 66.9 20.6 c -3.2 3.2 -5 6.4 -5.5 11.4 c 0 0.5 0 0.9 0 1.4 H 207.9 L 207.9 399.4 Z');"/>
                                <path d="M134.6,486.4c-21.1,0-45.3-12.4-46.7-12.8l-2.3-1.4v-32.1l-1.4-0.9c0.9-1.8,6-7.3,6-11.9v-29.8l17.9-4.1&#10;c24.3-11.4,90.7-34.3,134.6-34.3h54.9c12.4,0.9,22.9,3.2,32.1,5.5c17.9,5.5,58.6,30.2,65,34.3c6.4,0.9,40.3,5,67.8,11.9&#10;c33,8.2,44,21.5,45.3,27.5l2.7,47.2l-4.1-0.9c-7.8,1.8-14.2,2.7-31.1,2.7h-18.8v-9.2h13.7c12.8,0,22-0.5,27.5-1.8v-0.9v-35.7&#10;c-0.5-1.4-9.6-11.9-38-19.2c-29.8-7.8-66.9-11.9-67.3-11.9l-1.8-0.5c-0.5-0.5-45.8-28.8-64.1-34.3c-8.2-2.3-18.3-4.1-29.3-5.5h-54&#10;c-42.6,0-104.4,22.9-127.8,33.9l-4.6,1.4l-11,2.3v22c0,6.4-3.2,12.8-4.6,15.6v22.9c6,3.7,22.9,12.4,38,11.9h12.4v9.2h-12.4&#10;C132.8,486.4,135.1,486.4,134.6,486.4L134.6,486.4z M402,486.4H200.6v-9.2H402V486.4L402,486.4z" style="cursor:pointer;font-weight:bold;height:auto;overflow-x:visible;overflow-y:visible;text-align:center;width:auto;perspective-origin:0px 0px;transform-origin:0px 0px;fill:rgb(84, 182, 182);d:path('M 134.6 486.4 c -21.1 0 -45.3 -12.4 -46.7 -12.8 l -2.3 -1.4 v -32.1 l -1.4 -0.9 c 0.9 -1.8 6 -7.3 6 -11.9 v -29.8 l 17.9 -4.1 c 24.3 -11.4 90.7 -34.3 134.6 -34.3 h 54.9 c 12.4 0.9 22.9 3.2 32.1 5.5 c 17.9 5.5 58.6 30.2 65 34.3 c 6.4 0.9 40.3 5 67.8 11.9 c 33 8.2 44 21.5 45.3 27.5 l 2.7 47.2 l -4.1 -0.9 c -7.8 1.8 -14.2 2.7 -31.1 2.7 h -18.8 v -9.2 h 13.7 c 12.8 0 22 -0.5 27.5 -1.8 v -0.9 v -35.7 c -0.5 -1.4 -9.6 -11.9 -38 -19.2 c -29.8 -7.8 -66.9 -11.9 -67.3 -11.9 l -1.8 -0.5 c -0.5 -0.5 -45.8 -28.8 -64.1 -34.3 c -8.2 -2.3 -18.3 -4.1 -29.3 -5.5 h -54 c -42.6 0 -104.4 22.9 -127.8 33.9 l -4.6 1.4 l -11 2.3 v 22 c 0 6.4 -3.2 12.8 -4.6 15.6 v 22.9 c 6 3.7 22.9 12.4 38 11.9 h 12.4 v 9.2 h -12.4 C 132.8 486.4 135.1 486.4 134.6 486.4 L 134.6 486.4 Z M 402 486.4 H 200.6 v -9.2 H 402 V 486.4 L 402 486.4 Z');"/>
                                <path d="M99.8,414.1c0,4.6-2.3,9.6-2.7,12.4h6.9c7.8,0,17.9-6,18.3-12.4v-6H99.4L99.8,414.1L99.8,414.1L99.8,414.1z" style="cursor:pointer;font-weight:bold;height:auto;overflow-x:visible;overflow-y:visible;text-align:center;width:auto;perspective-origin:0px 0px;transform-origin:0px 0px;fill:rgb(84, 182, 182);d:path('M 99.8 414.1 c 0 4.6 -2.3 9.6 -2.7 12.4 h 6.9 c 7.8 0 17.9 -6 18.3 -12.4 v -6 H 99.4 L 99.8 414.1 L 99.8 414.1 L 99.8 414.1 Z');"/>
                                <path d="M471.6,433.3l9.2,16.5c2.7-1.8,7.3-2.7,11-2.7l0,0l0,0l0,0l0,0l0,0l0,0c4.6,0,9.6,0,14.2,0v-0.9c-0.5-1.4-5-9.2-9.6-12.8&#10;C487.7,433.3,479.9,433.3,471.6,433.3L471.6,433.3z" style="cursor:pointer;font-weight:bold;height:auto;overflow-x:visible;overflow-y:visible;text-align:center;width:auto;perspective-origin:0px 0px;transform-origin:0px 0px;fill:rgb(84, 182, 182);d:path('M 471.6 433.3 l 9.2 16.5 c 2.7 -1.8 7.3 -2.7 11 -2.7 l 0 0 l 0 0 l 0 0 l 0 0 l 0 0 l 0 0 c 4.6 0 9.6 0 14.2 0 v -0.9 c -0.5 -1.4 -5 -9.2 -9.6 -12.8 C 487.7 433.3 479.9 433.3 471.6 433.3 L 471.6 433.3 Z');"/>
                                <polygon points="310.5,426.9 287.6,426.9 287.6,422.3 310.5,422.3 &#9;" style="cursor:pointer;font-weight:bold;height:auto;overflow-x:visible;overflow-y:visible;text-align:center;width:auto;perspective-origin:0px 0px;transform-origin:0px 0px;fill:rgb(84, 182, 182);"/>
                                <polygon points="214.3,426.9 191.4,426.9 191.4,422.3 214.3,422.3 &#9;" style="cursor:pointer;font-weight:bold;height:auto;overflow-x:visible;overflow-y:visible;text-align:center;width:auto;perspective-origin:0px 0px;transform-origin:0px 0px;fill:rgb(84, 182, 182);"/>
                                <polygon points="232.6,459.9 232.6,468.1 381.9,468.1 &#9;" style="cursor:pointer;font-weight:bold;height:auto;overflow-x:visible;overflow-y:visible;text-align:center;width:auto;perspective-origin:0px 0px;transform-origin:0px 0px;fill:rgb(84, 182, 182);"/>
                                <polygon points="502.8,468.1 493.6,468.1 493.6,463.5 502.8,463.5 &#9;" style="cursor:pointer;font-weight:bold;height:auto;overflow-x:visible;overflow-y:visible;text-align:center;width:auto;perspective-origin:0px 0px;transform-origin:0px 0px;fill:rgb(84, 182, 182);"/>
                                <path d="M494.5,463.5h-6.9c-1.8,0-3.2-0.9-3.2,0.9v4.6c0,1.8,1.4,3.2,3.2,3.2h6.9c1.8,0,3.2-1.4,3.2-3.2v-2.3&#10;C498.2,464.9,496.8,463.5,494.5,463.5L494.5,463.5z" style="cursor:pointer;font-weight:bold;height:auto;overflow-x:visible;overflow-y:visible;text-align:center;width:auto;perspective-origin:0px 0px;transform-origin:0px 0px;fill:rgb(84, 182, 182);d:path('M 494.5 463.5 h -6.9 c -1.8 0 -3.2 -0.9 -3.2 0.9 v 4.6 c 0 1.8 1.4 3.2 3.2 3.2 h 6.9 c 1.8 0 3.2 -1.4 3.2 -3.2 v -2.3 C 498.2 464.9 496.8 463.5 494.5 463.5 L 494.5 463.5 Z');"/>
                                <path d="M359,396.2L359,396.2c-2.7,2.7-4.1,6-4.1,9.6c0,1.4,0.5,0.5,1.4,1.4c0.9,0.9,1.8,1.4,3.2,1.4H370c1.8,0,3.2-0.9,4.1-2.3&#10;c0.9-1.4,0.9-0.9,0-2.7c-1.8-3.2-5-6.4-10.1-8.2C362.2,394.4,360.4,394.8,359,396.2L359,396.2z" style="cursor:pointer;font-weight:bold;height:auto;overflow-x:visible;overflow-y:visible;text-align:center;width:auto;perspective-origin:0px 0px;transform-origin:0px 0px;fill:rgb(84, 182, 182);d:path('M 359 396.2 L 359 396.2 c -2.7 2.7 -4.1 6 -4.1 9.6 c 0 1.4 0.5 0.5 1.4 1.4 c 0.9 0.9 1.8 1.4 3.2 1.4 H 370 c 1.8 0 3.2 -0.9 4.1 -2.3 c 0.9 -1.4 0.9 -0.9 0 -2.7 c -1.8 -3.2 -5 -6.4 -10.1 -8.2 C 362.2 394.4 360.4 394.8 359 396.2 L 359 396.2 Z');"/>
                                <path d="M367.7,415.5c-0.9,0-1.8-0.5-2.7-1.4l-6-8.2c-0.9-1.4-0.9-3.2,0.9-4.6c1.4-0.9,3.2-0.9,4.6,0.9l6,8.2&#10;c0.9,1.4,0.9,3.2-0.9,4.6C369.1,415,368.6,415.5,367.7,415.5L367.7,415.5z" style="cursor:pointer;font-weight:bold;height:auto;overflow-x:visible;overflow-y:visible;text-align:center;width:auto;perspective-origin:0px 0px;transform-origin:0px 0px;fill:rgb(84, 182, 182);d:path('M 367.7 415.5 c -0.9 0 -1.8 -0.5 -2.7 -1.4 l -6 -8.2 c -0.9 -1.4 -0.9 -3.2 0.9 -4.6 c 1.4 -0.9 3.2 -0.9 4.6 0.9 l 6 8.2 c 0.9 1.4 0.9 3.2 -0.9 4.6 C 369.1 415 368.6 415.5 367.7 415.5 L 367.7 415.5 Z');"/>
                                <path d="M95.2,463.5v13.3h35.3l-0.5-0.9C115.4,474.5,101.2,467.2,95.2,463.5L95.2,463.5z" style="cursor:pointer;font-weight:bold;height:auto;overflow-x:visible;overflow-y:visible;text-align:center;width:auto;perspective-origin:0px 0px;transform-origin:0px 0px;fill:rgb(84, 182, 182);d:path('M 95.2 463.5 v 13.3 h 35.3 l -0.5 -0.9 C 115.4 474.5 101.2 467.2 95.2 463.5 L 95.2 463.5 Z');"/>
                                <path d="M175.4,431L175.4,431c11,0,21.1,4.6,28.8,11.9l0,0h-1.4c7.3,7.3,11.9,17.4,11.9,28.8v11.9v2.7h-4.6h-8.7&#10;c2.7-4.6,4.1-9.6,4.1-14.7c0-16-13.3-27.5-29.3-27.5s-29.3,11-29.3,27.5c0,5.5,1.4,10.5,4.1,14.7h-10.5h-3.2v-4.6v-10.5&#10;c0-11,4.6-21.1,11.9-28.8h-1.8l0,0C153.9,435.6,163.9,431,175.4,431L175.4,431z" style="cursor:pointer;font-weight:bold;height:auto;overflow-x:visible;overflow-y:visible;text-align:center;width:auto;perspective-origin:0px 0px;transform-origin:0px 0px;fill:rgb(84, 182, 182);d:path('M 175.4 431 L 175.4 431 c 11 0 21.1 4.6 28.8 11.9 l 0 0 h -1.4 c 7.3 7.3 11.9 17.4 11.9 28.8 v 11.9 v 2.7 h -4.6 h -8.7 c 2.7 -4.6 4.1 -9.6 4.1 -14.7 c 0 -16 -13.3 -27.5 -29.3 -27.5 s -29.3 11 -29.3 27.5 c 0 5.5 1.4 10.5 4.1 14.7 h -10.5 h -3.2 v -4.6 v -10.5 c 0 -11 4.6 -21.1 11.9 -28.8 h -1.8 l 0 0 C 153.9 435.6 163.9 431 175.4 431 L 175.4 431 Z');"/>
                                <path d="M151.1,449.3c6.4-6.4,14.7-10.1,24.3-10.1c9.6,0,17.9,3.7,24.3,10.1l0,0c6.4,6.4,10.1,14.7,10.1,24.3&#10;c0,9.6-3.7,17.9-10.1,24.3l0,0c-6.4,6.4-14.7,10.1-24.3,10.1c-9.6,0-17.9-3.7-24.3-10.1c-6.4-6.4-10.1-14.7-10.1-24.3&#10;C141,464,144.7,455.3,151.1,449.3L151.1,449.3L151.1,449.3L151.1,449.3z M175.4,449.3c-13.3,0-23.8,10.5-23.8,23.8&#10;s10.5,23.8,23.8,23.8c13.3,0,23.8-10.5,23.8-23.8C199.2,460.3,188.7,449.3,175.4,449.3L175.4,449.3z" style="cursor:pointer;font-weight:bold;height:auto;overflow-x:visible;overflow-y:visible;text-align:center;width:auto;perspective-origin:0px 0px;transform-origin:0px 0px;fill:rgb(84, 182, 182);d:path('M 151.1 449.3 c 6.4 -6.4 14.7 -10.1 24.3 -10.1 c 9.6 0 17.9 3.7 24.3 10.1 l 0 0 c 6.4 6.4 10.1 14.7 10.1 24.3 c 0 9.6 -3.7 17.9 -10.1 24.3 l 0 0 c -6.4 6.4 -14.7 10.1 -24.3 10.1 c -9.6 0 -17.9 -3.7 -24.3 -10.1 c -6.4 -6.4 -10.1 -14.7 -10.1 -24.3 C 141 464 144.7 455.3 151.1 449.3 L 151.1 449.3 L 151.1 449.3 L 151.1 449.3 Z M 175.4 449.3 c -13.3 0 -23.8 10.5 -23.8 23.8 s 10.5 23.8 23.8 23.8 c 13.3 0 23.8 -10.5 23.8 -23.8 C 199.2 460.3 188.7 449.3 175.4 449.3 L 175.4 449.3 Z');"/>
                                <path d="M175.4,464.9c-5,0-8.7,4.1-8.7,8.7c0,5,3.7,8.7,8.7,8.7c4.6,0,8.7-3.7,8.7-8.7C184.1,468.6,180,464.9,175.4,464.9&#10;L175.4,464.9z" style="cursor:pointer;font-weight:bold;height:auto;overflow-x:visible;overflow-y:visible;text-align:center;width:auto;perspective-origin:0px 0px;transform-origin:0px 0px;fill:rgb(84, 182, 182);d:path('M 175.4 464.9 c -5 0 -8.7 4.1 -8.7 8.7 c 0 5 3.7 8.7 8.7 8.7 c 4.6 0 8.7 -3.7 8.7 -8.7 C 184.1 468.6 180 464.9 175.4 464.9 L 175.4 464.9 Z');"/>
                                <path d="M432.7,431L432.7,431c11,0,21.1,4.6,28.8,11.9l0,0h1.8c7.3,7.3,11.9,17.4,11.9,28.8v11.9v2.7h-4.6h-11.9&#10;c2.7-4.6,4.1-9.6,4.1-14.7c0-16-13.3-27.5-29.3-27.5s-29.3,11-29.3,27.5c0,5.5,1.4,10.5,4.1,14.7h-10.5h-4.6v-4.6v-10.5&#10;c0-11,4.6-21.1,11.9-28.8h-0.5l0,0C411.7,435.6,421.7,431,432.7,431L432.7,431z" style="cursor:pointer;font-weight:bold;height:auto;overflow-x:visible;overflow-y:visible;text-align:center;width:auto;perspective-origin:0px 0px;transform-origin:0px 0px;fill:rgb(84, 182, 182);d:path('M 432.7 431 L 432.7 431 c 11 0 21.1 4.6 28.8 11.9 l 0 0 h 1.8 c 7.3 7.3 11.9 17.4 11.9 28.8 v 11.9 v 2.7 h -4.6 h -11.9 c 2.7 -4.6 4.1 -9.6 4.1 -14.7 c 0 -16 -13.3 -27.5 -29.3 -27.5 s -29.3 11 -29.3 27.5 c 0 5.5 1.4 10.5 4.1 14.7 h -10.5 h -4.6 v -4.6 v -10.5 c 0 -11 4.6 -21.1 11.9 -28.8 h -0.5 l 0 0 C 411.7 435.6 421.7 431 432.7 431 L 432.7 431 Z');"/>
                                <path d="M408.5,449.3c6.4-6.4,14.7-10.1,24.3-10.1c9.6,0,17.9,3.7,24.3,10.1l0,0c6.4,6.4,10.1,14.7,10.1,24.3&#10;c0,9.6-3.7,17.9-10.1,24.3l0,0c-6.4,6.4-14.7,10.1-24.3,10.1c-9.6,0-17.9-3.7-24.3-10.1c-6.4-6.4-10.1-14.7-10.1-24.3&#10;C398.8,464,402.5,455.3,408.5,449.3L408.5,449.3L408.5,449.3L408.5,449.3z M432.7,449.3c-13.3,0-23.8,10.5-23.8,23.8&#10;s10.5,23.8,23.8,23.8c13.3,0,23.8-10.5,23.8-23.8C457,460.3,446,449.3,432.7,449.3L432.7,449.3z" style="cursor:pointer;font-weight:bold;height:auto;overflow-x:visible;overflow-y:visible;text-align:center;width:auto;perspective-origin:0px 0px;transform-origin:0px 0px;fill:rgb(84, 182, 182);d:path('M 408.5 449.3 c 6.4 -6.4 14.7 -10.1 24.3 -10.1 c 9.6 0 17.9 3.7 24.3 10.1 l 0 0 c 6.4 6.4 10.1 14.7 10.1 24.3 c 0 9.6 -3.7 17.9 -10.1 24.3 l 0 0 c -6.4 6.4 -14.7 10.1 -24.3 10.1 c -9.6 0 -17.9 -3.7 -24.3 -10.1 c -6.4 -6.4 -10.1 -14.7 -10.1 -24.3 C 398.8 464 402.5 455.3 408.5 449.3 L 408.5 449.3 L 408.5 449.3 L 408.5 449.3 Z M 432.7 449.3 c -13.3 0 -23.8 10.5 -23.8 23.8 s 10.5 23.8 23.8 23.8 c 13.3 0 23.8 -10.5 23.8 -23.8 C 457 460.3 446 449.3 432.7 449.3 L 432.7 449.3 Z');"/>
                                <path d="M432.7,464.9c-4.6,0-8.7,4.1-8.7,8.7c0,5,3.7,8.7,8.7,8.7c4.6,0,8.7-3.7,8.7-8.7C441.9,468.6,437.8,464.9,432.7,464.9&#10;L432.7,464.9z" style="cursor:pointer;font-weight:bold;height:auto;overflow-x:visible;overflow-y:visible;text-align:center;width:auto;perspective-origin:0px 0px;transform-origin:0px 0px;fill:rgb(84, 182, 182);d:path('M 432.7 464.9 c -4.6 0 -8.7 4.1 -8.7 8.7 c 0 5 3.7 8.7 8.7 8.7 c 4.6 0 8.7 -3.7 8.7 -8.7 C 441.9 468.6 437.8 464.9 432.7 464.9 L 432.7 464.9 Z');"/>
                            </g>
                        </svg>